<svg width="48" height="49" viewBox="0 0 48 49" fill="none" xmlns="http://www.w3.org/2000/svg">
<path d="M24 0C10.752 0 0 10.976 0 24.5C0 38.024 10.752 49 24 49C37.248 49 48 38.024 48 24.5C48 10.976 37.248 0 24 0ZM24 7.35C27.984 7.35 31.2 10.633 31.2 14.7C31.2 18.767 27.984 22.05 24 22.05C20.016 22.05 16.8 18.767 16.8 14.7C16.8 10.633 20.016 7.35 24 7.35ZM24 42.14C18 42.14 12.696 39.004 9.6 34.251C9.672 29.3755 19.2 26.705 24 26.705C28.776 26.705 38.328 29.3755 38.4 34.251C35.304 39.004 30 42.14 24 42.14Z" fill="white"/>
</svg>
